<svg xmlns="http://www.w3.org/2000/svg" width="760" height="520" viewBox="0 0 760 520">
  <rect width="760" height="520" fill="#f9fafb"/>
  <g font-family="'Segoe UI', sans-serif">
    <text x="380" y="50" font-size="30" font-weight="700" fill="#1f2937" text-anchor="middle">Carte personas × fréquence d'usage</text>
    <g transform="translate(120,100)">
      <rect width="520" height="360" fill="#ffffff" stroke="#d1d5db" stroke-width="2" rx="12"/>
      <line x1="0" y1="120" x2="520" y2="120" stroke="#e5e7eb" stroke-width="2"/>
      <line x1="0" y1="240" x2="520" y2="240" stroke="#e5e7eb" stroke-width="2"/>
      <line x1="173" y1="0" x2="173" y2="360" stroke="#e5e7eb" stroke-width="2"/>
      <line x1="346" y1="0" x2="346" y2="360" stroke="#e5e7eb" stroke-width="2"/>
      <text x="-20" y="30" font-size="20" text-anchor="end" fill="#111827">Experts</text>
      <text x="-20" y="150" font-size="20" text-anchor="end" fill="#111827">Compétents</text>
      <text x="-20" y="270" font-size="20" text-anchor="end" fill="#111827">Occasionnels</text>
      <text x="86" y="390" font-size="20" text-anchor="middle" fill="#111827">Quotidien</text>
      <text x="260" y="390" font-size="20" text-anchor="middle" fill="#111827">Hebdomadaire</text>
      <text x="433" y="390" font-size="20" text-anchor="middle" fill="#111827">Mensuel</text>
      <g>
        <rect x="30" y="20" width="110" height="80" fill="#dbeafe" stroke="#1d4ed8" rx="10"/>
        <text x="85" y="55" font-size="18" text-anchor="middle" font-weight="600" fill="#1d4ed8">Persona A</text>
        <text x="85" y="77" font-size="14" text-anchor="middle" fill="#1d4ed8">Support</text>
      </g>
      <g>
        <rect x="210" y="140" width="110" height="80" fill="#fef3c7" stroke="#f59e0b" rx="10"/>
        <text x="265" y="175" font-size="18" text-anchor="middle" font-weight="600" fill="#b45309">Persona B</text>
        <text x="265" y="197" font-size="14" text-anchor="middle" fill="#b45309">Chef de projet</text>
      </g>
      <g>
        <rect x="390" y="260" width="110" height="80" fill="#dcfce7" stroke="#16a34a" rx="10"/>
        <text x="445" y="295" font-size="18" text-anchor="middle" font-weight="600" fill="#15803d">Persona C</text>
        <text x="445" y="317" font-size="14" text-anchor="middle" fill="#15803d">Intervenant externe</text>
      </g>
    </g>
    <text x="120" y="470" font-size="16" fill="#4b5563">Croisez niveau de maîtrise et fréquence pour prioriser tests & scénarios.</text>
  </g>
</svg>
